# Blender 5.0.1
# www.blender.org
g Cube.003_Cube.012
v -0.136711 0.527591 0.725681
v 0.000000 0.627786 0.602179
v -0.222122 0.527591 -0.161117
v 0.000000 0.749712 -0.161117
v -0.000002 0.305468 0.770481
v 0.136710 0.527589 0.725681
v -0.000002 0.305468 -0.161117
v 0.222121 0.527589 -0.161117
v -0.040186 0.567776 0.655620
v -0.040186 0.567776 -0.240421
v 0.040184 0.487404 -0.240421
v 0.040184 0.487404 0.655620
v -0.040187 0.487405 -0.240421
v 0.040184 0.567775 -0.240421
v -0.040187 0.487405 0.655620
v 0.040184 0.567775 0.655620
v -0.000001 0.527590 0.661384
v -0.000001 0.527590 -0.240421
vn -0.9495 0.3130 0.0230
vn 0.3362 -0.0000 -0.9418
vn 0.2708 -0.9625 0.0130
vn -0.0000 0.5087 0.8609
vn -0.9765 -0.2157 -0.0000
vn 0.9495 0.3129 0.0230
vn 0.4256 -0.0000 0.9049
vn 0.9765 -0.2157 -0.0000
vn -0.0000 -0.3362 -0.9418
vn -0.2708 0.9625 0.0130
vn -0.3362 -0.0000 -0.9418
vn -0.0000 0.4409 0.8976
vn 0.2709 0.9625 0.0130
vn -0.2709 -0.9625 0.0130
vn -0.4256 -0.0000 0.9049
vn -0.0000 0.3362 -0.9418
vt 0.500000 0.000000
vt 0.625000 0.000000
vt 0.625000 0.250000
vt 0.500000 0.250000
vt 0.500000 0.375000
vt 0.625000 0.375000
vt 0.625000 0.500000
vt 0.500000 0.500000
vt 0.625000 0.750000
vt 0.500000 0.750000
vt 0.500000 0.875000
vt 0.625000 0.875000
vt 0.625000 1.000000
vt 0.500000 1.000000
vt 0.250000 0.500000
vt 0.375000 0.500000
vt 0.375000 0.750000
vt 0.250000 0.750000
vt 0.750000 0.500000
vt 0.875000 0.500000
vt 0.875000 0.750000
vt 0.750000 0.750000
vt 0.375000 0.875000
vt 0.375000 1.000000
vt 0.375000 0.375000
vt 0.375000 0.000000
vt 0.375000 0.250000
vt 0.125000 0.500000
vt 0.125000 0.750000
s 0
f 9/1/1 2/2/1 4/3/1 10/4/1
f 18/5/2 14/6/2 8/7/2 11/8/2
f 11/8/3 8/7/3 6/9/3 12/10/3
f 17/11/4 16/12/4 2/13/4 9/14/4
f 13/15/5 7/16/5 5/17/5 15/18/5
f 14/19/6 4/20/6 2/21/6 16/22/6
f 15/23/7 17/11/7 9/14/7 1/24/7
f 7/16/8 11/8/8 12/10/8 5/17/8
f 13/25/9 18/5/9 11/8/9 7/16/9
f 1/26/10 9/1/10 10/4/10 3/27/10
f 3/27/11 10/4/11 18/5/11 13/25/11
f 5/17/12 12/10/12 17/11/12 15/23/12
f 8/7/13 14/19/13 16/22/13 6/9/13
f 3/28/14 13/15/14 15/18/14 1/29/14
f 12/10/15 6/9/15 16/12/15 17/11/15
f 10/4/16 4/3/16 14/6/16 18/5/16
g Cube.007_Cube.013
v -0.206776 -0.087069 3.455817
v 0.000000 0.186167 3.033748
v -0.335960 -0.087069 -2.032977
v 0.000000 0.248888 -2.032977
v -0.000003 -0.423030 3.028697
v 0.206773 -0.087073 3.455817
v -0.000003 -0.423030 -2.032977
v 0.335958 -0.087073 -2.032977
v -0.060782 -0.026291 2.876328
v -0.060782 -0.026291 -2.152923
v 0.060778 -0.147852 -2.152923
v 0.060778 -0.147852 2.876327
v -0.060782 -0.147851 -2.152923
v 0.060779 -0.026291 -2.152923
v -0.060782 -0.147851 2.876327
v 0.060779 -0.026291 2.876325
v -0.000002 -0.087071 2.863687
v -0.000002 -0.087071 -2.152923
vn -0.9705 0.2411 0.0015
vn 0.3362 -0.0000 -0.9418
vn 0.2722 -0.9622 0.0033
vn -0.0000 -0.5284 0.8490
vn -0.9765 -0.2157 -0.0000
vn 0.9705 0.2411 0.0015
vn 0.9441 -0.0000 0.3297
vn 0.9765 -0.2157 -0.0000
vn -0.0000 -0.3362 -0.9418
vn -0.2722 0.9622 0.0033
vn -0.3362 -0.0000 -0.9418
vn -0.0000 0.4409 0.8976
vn 0.2722 0.9622 0.0033
vn -0.2722 -0.9622 0.0033
vn -0.9441 -0.0000 0.3297
vn -0.0000 0.3362 -0.9418
vt 0.500000 0.000000
vt 0.625000 0.000000
vt 0.625000 0.250000
vt 0.500000 0.250000
vt 0.500000 0.375000
vt 0.625000 0.375000
vt 0.625000 0.500000
vt 0.500000 0.500000
vt 0.625000 0.750000
vt 0.500000 0.750000
vt 0.500000 0.875000
vt 0.625000 0.875000
vt 0.625000 1.000000
vt 0.500000 1.000000
vt 0.250000 0.500000
vt 0.375000 0.500000
vt 0.375000 0.750000
vt 0.250000 0.750000
vt 0.750000 0.500000
vt 0.875000 0.500000
vt 0.875000 0.750000
vt 0.750000 0.750000
vt 0.375000 0.875000
vt 0.375000 1.000000
vt 0.375000 0.375000
vt 0.375000 0.000000
vt 0.375000 0.250000
vt 0.125000 0.500000
vt 0.125000 0.750000
s 0
f 27/30/17 20/31/17 22/32/17 28/33/17
f 36/34/18 32/35/18 26/36/18 29/37/18
f 29/37/19 26/36/19 24/38/19 30/39/19
f 35/40/20 34/41/20 20/42/20 27/43/20
f 31/44/21 25/45/21 23/46/21 33/47/21
f 32/48/22 22/49/22 20/50/22 34/51/22
f 33/52/23 35/40/23 27/43/23 19/53/23
f 25/45/24 29/37/24 30/39/24 23/46/24
f 31/54/25 36/34/25 29/37/25 25/45/25
f 19/55/26 27/30/26 28/33/26 21/56/26
f 21/56/27 28/33/27 36/34/27 31/54/27
f 23/46/28 30/39/28 35/40/28 33/52/28
f 26/36/29 32/48/29 34/51/29 24/38/29
f 21/57/30 31/44/30 33/47/30 19/58/30
f 30/39/31 24/38/31 34/41/31 35/40/31
f 28/33/32 22/32/32 32/35/32 36/34/32
g Cube.008_Cube.014
v -0.110407 -0.102585 0.148113
v -0.064108 0.519981 0.101813
v -0.110407 -0.102585 -0.072703
v -0.064108 0.519981 -0.026403
v 0.110409 -0.102585 0.148113
v 0.064108 0.519981 0.101813
v 0.110409 -0.102585 -0.072703
v 0.064108 0.519981 -0.026403
v 0.000001 -0.102585 -0.250440
v 0.000000 0.519981 -0.129605
v 0.000001 -0.102585 0.325850
v 0.000000 0.519981 0.205015
v -0.017157 0.220807 0.084870
v -0.017157 0.220807 -0.009459
v 0.017157 0.220807 -0.009459
v 0.017157 0.220807 0.084870
v -0.000000 0.220807 0.160796
v -0.000000 0.220807 -0.085386
vn -0.9879 -0.1550 -0.0000
vn 0.9048 -0.1130 -0.4105
vn 0.9879 -0.1550 -0.0000
vn -0.9048 -0.1130 0.4105
vn -0.0000 -1.0000 -0.0000
vn -0.0000 1.0000 -0.0000
vn 0.9048 -0.1130 0.4105
vn -0.9048 -0.1130 -0.4105
vn -0.8586 0.2762 -0.4318
vn 0.8586 0.2762 0.4318
vn -0.8586 0.2762 0.4318
vn 0.9609 0.2771 -0.0000
vn 0.8586 0.2762 -0.4318
vn -0.9609 0.2771 -0.0000
vt 0.500000 0.000000
vt 0.625000 0.000000
vt 0.625000 0.250000
vt 0.500000 0.250000
vt 0.500000 0.375000
vt 0.625000 0.375000
vt 0.625000 0.500000
vt 0.500000 0.500000
vt 0.625000 0.750000
vt 0.500000 0.750000
vt 0.500000 0.875000
vt 0.625000 0.875000
vt 0.625000 1.000000
vt 0.500000 1.000000
vt 0.250000 0.500000
vt 0.375000 0.500000
vt 0.375000 0.750000
vt 0.250000 0.750000
vt 0.750000 0.500000
vt 0.875000 0.500000
vt 0.875000 0.750000
vt 0.750000 0.750000
vt 0.125000 0.500000
vt 0.125000 0.750000
vt 0.375000 0.250000
vt 0.375000 0.375000
vt 0.375000 0.875000
vt 0.375000 1.000000
vt 0.375000 0.000000
s 0
f 49/59/33 38/60/33 40/61/33 50/62/33
f 54/63/34 46/64/34 44/65/34 51/66/34
f 51/66/35 44/65/35 42/67/35 52/68/35
f 53/69/36 48/70/36 38/71/36 49/72/36
f 45/73/37 43/74/37 41/75/37 47/76/37
f 46/77/38 40/78/38 38/79/38 48/80/38
f 44/65/38 46/77/38 48/80/38 42/67/38
f 39/81/37 45/73/37 47/76/37 37/82/37
f 52/68/39 42/67/39 48/70/39 53/69/39
f 50/62/40 40/61/40 46/64/40 54/63/40
f 39/83/41 50/62/41 54/63/41 45/84/41
f 41/75/42 52/68/42 53/69/42 47/85/42
f 47/85/43 53/69/43 49/72/43 37/86/43
f 43/74/44 51/66/44 52/68/44 41/75/44
f 45/84/45 54/63/45 51/66/45 43/74/45
f 37/87/46 49/59/46 50/62/46 39/83/46
g Cube.009_Cube.015
v -0.000001 -0.001067 1.155163
v -0.000001 0.405234 0.487037
v -0.080295 -0.001067 1.074868
v -0.044676 0.405234 0.442362
v 0.080293 -0.001067 1.074868
v 0.044674 0.405234 0.442362
v -0.000001 -0.001067 0.994574
v -0.000001 0.405234 0.397687
v -0.000001 0.529656 0.487037
v -0.044676 0.529656 0.442362
v 0.044674 0.529656 0.442362
v -0.000001 0.529656 0.397687
v -0.000001 -0.088814 1.155163
v -0.080295 -0.088814 1.074868
v 0.080293 -0.088814 1.074868
v -0.000001 -0.088814 0.994574
vn -0.4611 0.7582 0.4611
vn -0.4904 -0.7204 -0.4904
vn 0.4904 -0.7204 -0.4904
vn 0.4611 0.7582 0.4611
vn -0.7071 -0.0000 0.7071
vn 0.7071 -0.0000 0.7071
vn -0.0000 1.0000 -0.0000
vn -0.7071 -0.0000 -0.7071
vn 0.7071 -0.0000 -0.7071
vn -0.0000 -1.0000 -0.0000
vt 0.375000 0.000000
vt 0.625000 0.000000
vt 0.625000 0.250000
vt 0.375000 0.250000
vt 0.625000 0.500000
vt 0.375000 0.500000
vt 0.625000 0.750000
vt 0.375000 0.750000
vt 0.625000 1.000000
vt 0.375000 1.000000
vt 0.875000 0.500000
vt 0.875000 0.750000
vt 0.125000 0.500000
vt 0.125000 0.750000
s 0
f 55/88/47 56/89/47 58/90/47 57/91/47
f 57/91/48 58/90/48 62/92/48 61/93/48
f 61/93/49 62/92/49 60/94/49 59/95/49
f 59/95/50 60/94/50 56/96/50 55/97/50
f 55/88/51 57/91/51 68/91/51 67/88/51
f 56/96/52 60/94/52 65/94/52 63/96/52
f 66/92/53 64/98/53 63/99/53 65/94/53
f 62/92/54 58/90/54 64/90/54 66/92/54
f 60/94/55 62/92/55 66/92/55 65/94/55
f 58/90/51 56/89/51 63/89/51 64/90/51
f 68/100/56 70/93/56 69/95/56 67/101/56
f 61/93/55 59/95/55 69/95/55 70/93/55
f 59/95/52 55/97/52 67/97/52 69/95/52
f 57/91/54 61/93/54 70/93/54 68/91/54
g Cube_Cube
v -0.293533 -0.331988 -1.326569
v -0.269329 0.428846 -1.144814
v -0.429567 -0.590865 -2.234000
v -0.479192 0.651312 -2.193809
v 0.293540 -0.331988 -1.326569
v 0.269335 0.428846 -1.144814
v 0.429574 -0.590865 -2.234000
v 0.479199 0.651312 -2.193809
v 0.278404 -0.801693 -2.375101
v 0.000004 -1.049536 -2.547915
v -0.278398 -0.801695 -2.375102
v -0.298386 0.824169 -2.365903
v 0.000004 1.007273 -2.549006
v 0.298393 0.824170 -2.365904
v -0.181497 -0.432421 -1.226136
v 0.000003 -0.543797 -1.114760
v 0.181504 -0.432422 -1.226135
v 0.174555 0.573152 -1.049433
v 0.000003 0.745513 -0.939490
v -0.174549 0.573153 -1.049433
v -0.287590 -0.145179 -1.281942
v -0.441752 -0.315076 -2.847194
v 0.441758 -0.315076 -2.847194
v 0.287597 -0.145179 -1.281942
v 0.179798 -0.185521 -1.182749
v 0.000003 -0.227230 -1.071726
v -0.179791 -0.185520 -1.182750
v -0.283306 -0.431698 -2.995905
v 0.000004 -0.573729 -3.171244
v 0.283312 -0.431697 -2.995904
vn -0.9873 -0.0820 0.1358
vn 0.6721 0.3583 -0.6480
vn 0.9873 -0.0820 0.1358
vn -0.6474 -0.1406 0.7491
vn 0.7156 -0.6413 0.2769
vn -0.7053 0.6693 0.2335
vn 0.7053 0.6693 0.2335
vn 0.5762 0.8005 0.1647
vn -0.5762 0.8005 0.1647
vn -0.7156 -0.6413 0.2769
vn -0.5665 -0.7738 0.2835
vn 0.5665 -0.7738 0.2835
vn 0.6474 -0.1406 0.7491
vn 0.4894 -0.1308 0.8622
vn -0.4894 -0.1308 0.8622
vn -0.6721 0.3583 -0.6480
vn -0.5099 0.3451 -0.7880
vn 0.5099 0.3451 -0.7880
vn 0.6779 -0.6092 -0.4115
vn -0.6779 -0.6092 -0.4115
vn -0.8067 -0.5281 -0.2652
vn -0.5578 -0.1242 0.8206
vn 0.5578 -0.1242 0.8207
vn 0.7104 -0.1279 0.6921
vn -0.7104 -0.1279 0.6921
vn 0.9895 0.1066 0.0976
vn 0.8067 -0.5281 -0.2652
vn -0.9895 0.1066 0.0976
vt 0.436383 0.000000
vt 0.625000 0.000000
vt 0.625000 0.250000
vt 0.436383 0.250000
vt 0.436383 0.437500
vt 0.625000 0.437500
vt 0.625000 0.500000
vt 0.436383 0.500000
vt 0.625000 0.750000
vt 0.436383 0.750000
vt 0.436383 0.937500
vt 0.625000 0.937500
vt 0.625000 1.000000
vt 0.436383 1.000000
vt 0.312500 0.500000
vt 0.375000 0.500000
vt 0.375000 0.750000
vt 0.312500 0.750000
vt 0.812500 0.500000
vt 0.875000 0.500000
vt 0.875000 0.750000
vt 0.812500 0.750000
vt 0.687500 0.500000
vt 0.687500 0.750000
vt 0.750000 0.500000
vt 0.750000 0.750000
vt 0.125000 0.500000
vt 0.187500 0.500000
vt 0.187500 0.750000
vt 0.125000 0.750000
vt 0.250000 0.500000
vt 0.250000 0.750000
vt 0.625000 0.812500
vt 0.436383 0.812500
vt 0.625000 0.875000
vt 0.436383 0.875000
vt 0.625000 0.312500
vt 0.436383 0.312500
vt 0.625000 0.375000
vt 0.436383 0.375000
vt 0.375000 0.375000
vt 0.375000 0.437500
vt 0.375000 0.312500
vt 0.375000 0.250000
vt 0.375000 0.875000
vt 0.375000 0.937500
vt 0.375000 0.812500
vt 0.375000 1.000000
vt 0.375000 0.000000
s 0
f 91/102/57 72/103/57 74/104/57 92/105/57
f 100/106/58 84/107/58 78/108/58 93/109/58
f 93/109/59 78/108/59 76/110/59 94/111/59
f 97/112/60 90/113/60 72/114/60 91/115/60
f 79/116/61 77/117/61 75/118/61 87/119/61
f 82/120/62 74/121/62 72/122/62 90/123/62
f 78/108/63 84/124/63 88/125/63 76/110/63
f 84/124/64 83/126/64 89/127/64 88/125/64
f 83/126/65 82/120/65 90/123/65 89/127/65
f 73/128/66 81/129/66 85/130/66 71/131/66
f 81/129/67 80/132/67 86/133/67 85/130/67
f 80/132/68 79/116/68 87/119/68 86/133/68
f 94/111/69 76/110/69 88/134/69 95/135/69
f 95/135/70 88/134/70 89/136/70 96/137/70
f 96/137/71 89/136/71 90/113/71 97/112/71
f 92/105/72 74/104/72 82/138/72 98/139/72
f 98/139/73 82/138/73 83/140/73 99/141/73
f 99/141/74 83/140/74 84/107/74 100/106/74
f 80/142/75 99/141/75 100/106/75 79/143/75
f 81/144/76 98/139/76 99/141/76 80/142/76
f 73/145/77 92/105/77 98/139/77 81/144/77
f 86/146/78 96/137/78 97/112/78 85/147/78
f 87/148/79 95/135/79 96/137/79 86/146/79
f 75/118/80 94/111/80 95/135/80 87/148/80
f 85/147/81 97/112/81 91/115/81 71/149/81
f 77/117/82 93/109/82 94/111/82 75/118/82
f 79/143/83 100/106/83 93/109/83 77/117/83
f 71/150/84 91/102/84 92/105/84 73/145/84
